/* XPM */
static char *f6490ef204db4055fbba3d395f18a3a7I2dwQ59VJQ8xIkr1[] = {
/* columns rows colors chars-per-pixel */
"64 64 3 1 ",
"  c #A8A65E",
". c #B6B461",
"X c #BAB76A",
/* pixels */
"                                                                ",
" XXXXXXXXXXXXXX  ..............  ..............  .............. ",
" XXXXXXXXXXXXXX  ..............  ..............  .............. ",
" XXXXXXXXXXXXXX  ..............  ..............  .............. ",
" XXXXXXXXXXXXXX  ..............  ..............  .............. ",
" XXXXXXXXXXXXXX  ..............  ..............  .............. ",
" XXXXXXXXXXXXXX  ..............  ..............  .............. ",
" XXXXXXXXXXXXXX  ..............  ..............  .............. ",
" XXXXXXXXXXXXXX  ..............  ..............  .............. ",
" XXXXXXXXXXXXXX  ..............  ..............  .............. ",
" XXXXXXXXXXXXXX  ..............  ..............  .............. ",
" XXXXXXXXXXXXXX  ..............  ..............  .............. ",
" XXXXXXXXXXXXXX  ..............  ..............  .............. ",
" XXXXXXXXXXXXXX  ..............  ..............  .............. ",
" XXXXXXXXXXXXXX  ..............  ..............  .............. ",
"                                                                ",
"                                                                ",
" ..............  ..............  ..............  XXXXXXXXXXXXXX ",
" ..............  ..............  ..............  XXXXXXXXXXXXXX ",
" ..............  ..............  ..............  XXXXXXXXXXXXXX ",
" ..............  ..............  ..............  XXXXXXXXXXXXXX ",
" ..............  ..............  ..............  XXXXXXXXXXXXXX ",
" ..............  ..............  ..............  XXXXXXXXXXXXXX ",
" ..............  ..............  ..............  XXXXXXXXXXXXXX ",
" ..............  ..............  ..............  XXXXXXXXXXXXXX ",
" ..............  ..............  ..............  XXXXXXXXXXXXXX ",
" ..............  ..............  ..............  XXXXXXXXXXXXXX ",
" ..............  ..............  ..............  XXXXXXXXXXXXXX ",
" ..............  ..............  ..............  XXXXXXXXXXXXXX ",
" ..............  ..............  ..............  XXXXXXXXXXXXXX ",
" ..............  ..............  ..............  XXXXXXXXXXXXXX ",
"                                                                ",
"                                                                ",
" ..............  XXXXXXXXXXXXXX  ..............  .............. ",
" ..............  XXXXXXXXXXXXXX  ..............  .............. ",
" ..............  XXXXXXXXXXXXXX  ..............  .............. ",
" ..............  XXXXXXXXXXXXXX  ..............  .............. ",
" ..............  XXXXXXXXXXXXXX  ..............  .............. ",
" ..............  XXXXXXXXXXXXXX  ..............  .............. ",
" ..............  XXXXXXXXXXXXXX  ..............  .............. ",
" ..............  XXXXXXXXXXXXXX  ..............  .............. ",
" ..............  XXXXXXXXXXXXXX  ..............  .............. ",
" ..............  XXXXXXXXXXXXXX  ..............  .............. ",
" ..............  XXXXXXXXXXXXXX  ..............  .............. ",
" ..............  XXXXXXXXXXXXXX  ..............  .............. ",
" ..............  XXXXXXXXXXXXXX  ..............  .............. ",
" ..............  XXXXXXXXXXXXXX  ..............  .............. ",
"                                                                ",
"                                                                ",
" ..............  ..............  XXXXXXXXXXXXXX  .............. ",
" ..............  ..............  XXXXXXXXXXXXXX  .............. ",
" ..............  ..............  XXXXXXXXXXXXXX  .............. ",
" ..............  ..............  XXXXXXXXXXXXXX  .............. ",
" ..............  ..............  XXXXXXXXXXXXXX  .............. ",
" ..............  ..............  XXXXXXXXXXXXXX  .............. ",
" ..............  ..............  XXXXXXXXXXXXXX  .............. ",
" ..............  ..............  XXXXXXXXXXXXXX  .............. ",
" ..............  ..............  XXXXXXXXXXXXXX  .............. ",
" ..............  ..............  XXXXXXXXXXXXXX  .............. ",
" ..............  ..............  XXXXXXXXXXXXXX  .............. ",
" ..............  ..............  XXXXXXXXXXXXXX  .............. ",
" ..............  ..............  XXXXXXXXXXXXXX  .............. ",
" ..............  ..............  XXXXXXXXXXXXXX  .............. ",
"                                                                "
};
